<svg xmlns="http://www.w3.org/2000/svg" xmlns:xlink="http://www.w3.org/1999/xlink" preserveAspectRatio="xMidYMid" width="40" height="72" viewBox="0 0 40 72">
  <defs>
    <style>
      .cls-1 {
        fill: #fffefe;
      }

      .cls-1, .cls-2 {
        fill-rule: evenodd;
      }

      .cls-2 {
        fill: #ed1c24;
      }
    </style>
  </defs>
  <path d="M9.375,59.193 C9.375,60.953 7.969,62.393 6.250,62.393 C4.531,62.393 3.125,60.953 3.125,59.193 C3.125,57.433 4.531,55.993 6.250,55.993 C7.969,55.993 9.375,57.433 9.375,59.193 ZM10.078,52.793 L11.816,45.654 C11.875,45.434 12.266,45.114 12.500,45.114 L27.500,45.114 C27.734,45.114 28.125,45.434 28.184,45.654 L29.922,52.793 L10.078,52.793 ZM36.875,59.193 C36.875,60.953 35.469,62.393 33.750,62.393 C32.031,62.393 30.625,60.953 30.625,59.193 C30.625,57.433 32.031,55.993 33.750,55.993 C35.469,55.993 36.875,57.433 36.875,59.193 ZM40.000,57.273 C40.000,54.793 38.047,52.793 35.625,52.793 L35.078,52.793 L33.027,44.414 C32.422,41.894 30.039,39.995 27.500,39.995 L12.500,39.995 C9.961,39.995 7.578,41.894 6.973,44.414 L4.922,52.793 L4.375,52.793 C1.953,52.793 -0.000,54.793 -0.000,57.273 L-0.000,64.952 C-0.000,65.312 0.273,65.592 0.625,65.592 L2.500,65.592 L2.500,68.152 C2.500,70.272 4.180,71.992 6.250,71.992 C8.320,71.992 10.000,70.272 10.000,68.152 L10.000,65.592 L30.000,65.592 L30.000,68.152 C30.000,70.272 31.680,71.992 33.750,71.992 C35.820,71.992 37.500,70.272 37.500,68.152 L37.500,65.592 L39.375,65.592 C39.727,65.592 40.000,65.312 40.000,64.952 L40.000,57.273 Z" class="cls-1"/>
  <path d="M9.375,19.193 C9.375,20.953 7.969,22.393 6.250,22.393 C4.531,22.393 3.125,20.953 3.125,19.193 C3.125,17.433 4.531,15.993 6.250,15.993 C7.969,15.993 9.375,17.433 9.375,19.193 ZM10.078,12.793 L11.816,5.654 C11.875,5.434 12.266,5.114 12.500,5.114 L27.500,5.114 C27.734,5.114 28.125,5.434 28.184,5.654 L29.922,12.793 L10.078,12.793 ZM36.875,19.193 C36.875,20.953 35.469,22.393 33.750,22.393 C32.031,22.393 30.625,20.953 30.625,19.193 C30.625,17.433 32.031,15.993 33.750,15.993 C35.469,15.993 36.875,17.433 36.875,19.193 ZM40.000,17.273 C40.000,14.793 38.047,12.793 35.625,12.793 L35.078,12.793 L33.027,4.414 C32.422,1.894 30.039,-0.005 27.500,-0.005 L12.500,-0.005 C9.961,-0.005 7.578,1.894 6.973,4.414 L4.922,12.793 L4.375,12.793 C1.953,12.793 -0.000,14.793 -0.000,17.273 L-0.000,24.952 C-0.000,25.312 0.273,25.592 0.625,25.592 L2.500,25.592 L2.500,28.152 C2.500,30.272 4.180,31.992 6.250,31.992 C8.320,31.992 10.000,30.272 10.000,28.152 L10.000,25.592 L30.000,25.592 L30.000,28.152 C30.000,30.272 31.680,31.992 33.750,31.992 C35.820,31.992 37.500,30.272 37.500,28.152 L37.500,25.592 L39.375,25.592 C39.727,25.592 40.000,25.312 40.000,24.952 L40.000,17.273 Z" class="cls-2"/>
</svg>
