<svg xmlns="http://www.w3.org/2000/svg" xmlns:xlink="http://www.w3.org/1999/xlink" preserveAspectRatio="xMidYMid" width="24" height="54" viewBox="0 0 24 54">
  <defs>
    <style>
      .cls-1 {
        fill: #7f7f7f;
      }

      .cls-1, .cls-2 {
        fill-rule: evenodd;
      }

      .cls-2 {
        fill: #ed1c24;
      }
    </style>
  </defs>
  <path d="M12.000,54.000 C5.373,54.000 -0.000,48.627 -0.000,42.000 C-0.000,35.373 5.373,30.000 12.000,30.000 C18.627,30.000 24.000,35.373 24.000,42.000 C24.000,48.627 18.627,54.000 12.000,54.000 ZM14.388,51.560 C17.266,50.836 19.634,48.842 20.875,46.198 C20.171,45.125 18.694,43.971 17.455,43.867 C15.864,43.733 13.636,45.511 13.636,47.067 C13.636,48.462 13.499,50.563 14.388,51.560 ZM12.000,44.933 C13.205,44.933 14.182,43.978 14.182,42.800 C14.182,41.622 13.205,40.667 12.000,40.667 C10.795,40.667 9.818,41.622 9.818,42.800 C9.818,43.978 10.795,44.933 12.000,44.933 ZM9.557,51.546 C9.880,51.052 10.364,49.851 10.364,47.067 C10.364,44.222 7.091,43.867 7.091,43.867 C7.091,43.867 4.523,43.694 3.126,46.201 C4.359,48.826 6.705,50.811 9.557,51.546 ZM12.000,32.133 C6.836,32.133 2.612,36.143 2.220,41.231 C2.472,41.510 2.815,41.733 3.273,41.733 C4.500,41.733 8.136,39.067 12.000,39.067 C15.864,39.067 19.000,41.733 20.727,41.733 C21.216,41.733 21.548,41.599 21.789,41.416 C21.486,36.240 17.226,32.133 12.000,32.133 Z" class="cls-1"/>
  <path d="M12.000,24.000 C5.373,24.000 -0.000,18.627 -0.000,12.000 C-0.000,5.373 5.373,-0.000 12.000,-0.000 C18.627,-0.000 24.000,5.373 24.000,12.000 C24.000,18.627 18.627,24.000 12.000,24.000 ZM14.388,21.560 C17.266,20.836 19.634,18.842 20.875,16.198 C20.171,15.125 18.694,13.971 17.455,13.867 C15.864,13.733 13.636,15.511 13.636,17.067 C13.636,18.462 13.499,20.563 14.388,21.560 ZM12.000,14.933 C13.205,14.933 14.182,13.978 14.182,12.800 C14.182,11.622 13.205,10.667 12.000,10.667 C10.795,10.667 9.818,11.622 9.818,12.800 C9.818,13.978 10.795,14.933 12.000,14.933 ZM9.557,21.546 C9.880,21.052 10.364,19.851 10.364,17.067 C10.364,14.222 7.091,13.867 7.091,13.867 C7.091,13.867 4.523,13.694 3.126,16.201 C4.359,18.826 6.705,20.811 9.557,21.546 ZM12.000,2.133 C6.836,2.133 2.612,6.143 2.220,11.231 C2.472,11.510 2.815,11.733 3.273,11.733 C4.500,11.733 8.136,9.067 12.000,9.067 C15.864,9.067 19.000,11.733 20.727,11.733 C21.216,11.733 21.548,11.599 21.789,11.416 C21.486,6.240 17.226,2.133 12.000,2.133 Z" class="cls-2"/>
</svg>
