<svg xmlns="http://www.w3.org/2000/svg" xmlns:xlink="http://www.w3.org/1999/xlink" preserveAspectRatio="xMidYMid" width="24" height="54" viewBox="0 0 24 54">
  <defs>
    <style>
      .cls-1 {
        fill: #ed1c24;
      }

      .cls-1, .cls-2 {
        fill-rule: evenodd;
      }

      .cls-2 {
        fill: gray;
      }
    </style>
  </defs>
  <path d="M12.000,23.999 C5.383,23.999 -0.000,18.617 -0.000,11.999 C-0.000,5.382 5.383,-0.001 12.000,-0.001 C18.617,-0.001 24.000,5.382 24.000,11.999 C24.000,18.617 18.617,23.999 12.000,23.999 ZM12.000,1.998 C6.485,1.998 1.998,6.484 1.998,11.999 C1.998,17.515 6.485,22.001 12.000,22.001 C17.515,22.001 22.002,17.515 22.002,11.999 C22.002,6.484 17.515,1.998 12.000,1.998 ZM15.350,11.877 C15.835,12.455 16.075,13.190 16.075,14.091 C16.075,15.095 15.771,15.942 15.164,16.633 C14.557,17.324 13.709,17.745 12.627,17.901 L12.627,19.459 L11.417,19.459 L11.417,17.940 C10.457,17.828 9.678,17.470 9.076,16.868 C8.473,16.266 8.091,15.418 7.925,14.326 L10.099,14.091 C10.188,14.536 10.354,14.919 10.599,15.242 C10.844,15.565 11.118,15.800 11.417,15.942 L11.417,12.450 C10.330,12.141 9.531,11.671 9.022,11.039 C8.513,10.407 8.258,9.643 8.258,8.742 C8.258,7.831 8.547,7.062 9.120,6.445 C9.698,5.823 10.462,5.465 11.417,5.372 L11.417,4.550 L12.627,4.550 L12.627,5.372 C13.509,5.480 14.209,5.779 14.733,6.278 C15.252,6.773 15.590,7.439 15.732,8.272 L13.626,8.547 C13.499,7.890 13.166,7.449 12.627,7.214 L12.627,10.471 C13.959,10.834 14.865,11.299 15.350,11.877 ZM12.627,16.055 C14.248,15.717 14.400,13.145 12.627,12.803 L12.627,16.055 ZM11.417,7.185 C10.232,7.185 9.649,9.492 11.417,10.070 L11.417,7.185 Z" class="cls-1"/>
  <path d="M12.000,53.999 C5.383,53.999 -0.000,48.617 -0.000,41.999 C-0.000,35.382 5.383,29.999 12.000,29.999 C18.617,29.999 24.000,35.382 24.000,41.999 C24.000,48.617 18.617,53.999 12.000,53.999 ZM12.000,31.998 C6.485,31.998 1.998,36.484 1.998,41.999 C1.998,47.515 6.485,52.001 12.000,52.001 C17.515,52.001 22.002,47.515 22.002,41.999 C22.002,36.484 17.515,31.998 12.000,31.998 ZM15.350,41.877 C15.835,42.455 16.075,43.190 16.075,44.091 C16.075,45.095 15.771,45.942 15.164,46.633 C14.557,47.324 13.709,47.745 12.627,47.901 L12.627,49.459 L11.417,49.459 L11.417,47.940 C10.457,47.828 9.678,47.470 9.076,46.868 C8.473,46.266 8.091,45.418 7.925,44.326 L10.099,44.091 C10.188,44.536 10.354,44.919 10.599,45.242 C10.844,45.565 11.118,45.800 11.417,45.942 L11.417,42.450 C10.330,42.141 9.531,41.671 9.022,41.039 C8.513,40.407 8.258,39.643 8.258,38.742 C8.258,37.831 8.547,37.062 9.120,36.445 C9.698,35.823 10.462,35.465 11.417,35.372 L11.417,34.550 L12.627,34.550 L12.627,35.372 C13.509,35.480 14.209,35.779 14.733,36.278 C15.252,36.773 15.590,37.439 15.732,38.272 L13.626,38.547 C13.499,37.890 13.166,37.449 12.627,37.214 L12.627,40.471 C13.959,40.834 14.865,41.299 15.350,41.877 ZM12.627,46.055 C14.248,45.717 14.400,43.145 12.627,42.803 L12.627,46.055 ZM11.417,37.185 C10.232,37.185 9.649,39.492 11.417,40.070 L11.417,37.185 Z" class="cls-2"/>
</svg>
