<svg xmlns="http://www.w3.org/2000/svg" xmlns:xlink="http://www.w3.org/1999/xlink" preserveAspectRatio="xMidYMid" width="24" height="24" viewBox="0 0 24 24">
  <defs>
    <style>
      .cls-1 {
        fill: #ed1c24;
        fill-rule: evenodd;
      }
    </style>
  </defs>
  <path d="M5.003,0.000 C3.673,-0.001 2.591,0.702 2.105,1.191 C-2.369,5.689 0.933,13.104 5.894,18.090 L5.894,18.090 C8.736,20.947 13.285,23.999 17.526,23.999 C17.526,23.999 17.526,23.999 17.526,23.999 C19.587,23.999 21.335,23.293 22.721,21.899 C22.788,21.832 24.361,20.223 23.899,18.099 C23.605,16.741 21.526,13.792 19.014,13.049 C17.596,12.629 16.280,12.971 15.208,14.037 C14.180,15.062 13.884,15.777 13.859,16.356 C13.175,16.200 11.737,15.500 10.110,13.864 C8.429,12.175 7.719,10.704 7.577,10.045 C8.163,9.972 8.819,9.624 9.789,8.658 C10.850,7.602 11.196,6.305 10.790,4.907 C10.072,2.437 7.158,0.383 5.810,0.087 C5.533,0.027 5.263,0.000 5.003,0.000 ZM17.526,22.222 C14.432,22.222 10.457,20.158 7.151,16.835 L7.151,16.835 C2.653,12.314 -0.093,5.920 3.363,2.445 C3.372,2.436 4.271,1.570 5.430,1.824 C6.236,2.001 8.566,3.619 9.085,5.404 C9.308,6.170 9.134,6.803 8.538,7.397 C8.192,7.741 7.562,8.334 7.282,8.282 C7.097,8.261 6.667,8.212 6.266,8.580 C6.052,8.776 5.793,9.138 5.778,9.752 C5.746,11.104 6.953,13.211 8.853,15.119 C10.724,17.001 12.842,18.186 14.197,18.163 C14.825,18.148 15.192,17.884 15.390,17.665 C15.787,17.226 15.686,16.732 15.647,16.547 C15.628,16.457 15.572,16.182 16.460,15.298 C17.068,14.693 17.721,14.519 18.511,14.754 C20.340,15.295 21.988,17.663 22.165,18.478 C22.378,19.458 21.714,20.394 21.464,20.645 C20.422,21.691 19.098,22.222 17.526,22.222 Z" class="cls-1"/>
</svg>
